<?xml version="1.0" encoding="utf-8"?>
<!-- Generator: Adobe Illustrator 23.0.3, SVG Export Plug-In . SVG Version: 6.00 Build 0)  -->
<svg version="1.1" id="Lag_1" xmlns="http://www.w3.org/2000/svg" xmlns:xlink="http://www.w3.org/1999/xlink" x="0px" y="0px"
	 viewBox="0 0 400 1400" style="enable-background:new 0 0 400 1400;" xml:space="preserve">
<style type="text/css">
	.st0{fill:#3F0000;}
	.st1{fill:#A86454;}
	.st2{fill:#2A1000;}
	.st3{fill:#94544A;}
	.st4{fill:#470000;}
	.st5{fill:#3065A7;}
	.st6{fill:#C32B44;}
</style>
<g>
	<g>
		<g>
			<path class="st0" d="M48.77,393.59c-8.57,17.1-13.17,40.65-9.96,59.41c0.86,5,2.13,10.16,0.78,15.06
				c-3.5,12.73-21.02,15.38-30.49,24.82c-8.43,8.4-9.54,21.93-5.33,32.93c4.21,10.99,12.85,19.83,22.06,27.42
				c3.13,2.58,6.65,5.17,10.76,5.39c5.43,0.3,10.05-3.57,13.96-7.24c22.26-20.92,42.76-43.59,61.24-67.72
				c2.98-3.89,5.96-7.91,7.55-12.51c3.72-10.76-0.69-22.36-1.88-33.65s3.56-25.5,15.17-26.91c10.09-1.23,18.21,8.34,21.3,17.74
				c3.09,9.4,3.51,19.8,8.89,28.17c7.01,10.91,20.6,15.68,33.18,19.72c4.61,1.48,9.61,2.96,14.22,1.48
				c4.86-1.56,8.01-6.01,10.8-10.17c8.04-12,16.18-24.2,20.38-37.92c4.2-13.71,3.99-29.39-4.01-41.41
				c-5.52-8.3-14.64-14.94-16.31-24.69c-1.11-6.45,0.82-14.44-4.46-18.5c-2.78-2.13-6.63-2.24-10.17-2.17
				c-50.4,0.92-100.41,16.67-141.74,44.66L48.77,393.59z"/>
		</g>
		<g>
			<path class="st1" d="M319.53,579.41c14.46-14.48,24.74-33.07,29.32-53.02c0.57-2.5,1.12-5.13,2.79-7.08
				c1.25-1.45,3.01-2.36,4.5-3.57c8.61-7,5.66-20.59,1.94-31.05c-4.09-11.47-8.17-22.93-12.26-34.4c-3.06-8.59-6.1-18.21-2.41-26.55
				c2.74-6.19,8.97-10.92,9.63-17.67c0.54-5.5-2.99-10.71-7.44-13.96s-9.8-5.02-14.87-7.19c-15.51-6.63-28.89-17.29-43.16-26.29
				s-30.39-16.55-47.24-15.77c-4.58,0.21-9.33,1.13-12.93,3.97c-6.49,5.13-7.2,14.46-9.81,22.31
				c-3.66,11.01-12.37,20.46-23.41,24.02c-18.18,5.85-38.42-4.44-56.84,0.6c-10.71,2.93-19.34,10.67-27.54,18.16
				c-8.39,7.67-16.91,15.49-22.69,25.27c-6.58,11.13-9.23,24.13-14.9,35.75c-3.63,7.44-8.45,14.23-12.13,21.64
				c-7.1,14.3-9.68,30.35-12.17,46.12c-0.75,4.78-1.41,10.06,1.24,14.1c1.85,2.82,4.97,4.49,7.96,6.04
				c27.52,14.26,55.33,28.64,85.35,36.36c13.34,3.43,27.39,5.67,38.96,13.15c12.32,7.98,20.33,20.95,28.2,33.34
				c1.78,2.8,3.95,5.85,7.23,6.37c2.64,0.42,5.19-0.97,7.5-2.31c20.21-11.72,40.2-23.83,59.95-36.31L319.53,579.41z"/>
		</g>
		<g>
			<path class="st0" d="M159.16,515.74"/>
		</g>
		<g>
			<path class="st0" d="M193.96,585.31c-3.56,0.26-6.12-3.25-7.88-6.36"/>
		</g>
		<g>
			<path class="st0" d="M145.98,562.87c-0.24,5.72-0.31,11.67,2.03,16.9c2.61,5.82,7.85,9.97,12.99,13.75
				c29.72,21.87,62.43,39.67,96.94,52.73c9.65,3.65,19.65,6.98,29.97,7.01c17.44,0.05,34.8-10.54,41.54-26.63
				c6.74-16.08,1.55-36.69-12.76-46.66c-18.02-12.56-43.03-6.54-63.78-13.76c-26.55-9.23-41.07-38.51-44.76-66.38
				c-1.47-11.12-4.32-25.47-15.42-27.09c-10.54-1.54-17.82,10.83-18.64,21.44"/>
		</g>
		<path class="st2" d="M48.46,394.56l-37.68-102.7l-4.51-34.99l-65.46-118.5c0,0,4.51-18.06,20.31-14.67S86.4,107.9,86.4,107.9
			l191.86-64.33L393.37-0.45c0,0-10.16,32.73-11.29,36.11C380.96,39.05,355,204.96,355,204.96l-1.13,106.09l-160.26,48.53
			L48.46,394.56z"/>
		<g>
			<path d="M224.96,345.03c15.51,12.35,40.21,30.22,55.72,42.58c5.36,4.27,10.78,8.58,16.97,11.52c6.11,2.9,12.77,4.39,19.38,5.85
				c23.4,5.19,46.9,10.4,70.81,12.19c5.57,0.42,12,0.31,15.62-3.94c3.81-4.48,2.55-11.33,0.13-16.68
				c-3.23-7.13-8.06-13.39-12.59-19.77c-14.24-20.03-28.33-42.78-37.11-65.72L224.96,345.03z"/>
		</g>
		<g>
			<path class="st3" d="M146.89,413.58c-2.83,1.09-5.65,2.19-8.48,3.28c-2.83,1.1-5.77,2.26-7.81,4.51
				c-2.86,3.15-3.37,7.71-3.74,11.95c-0.4,4.51-0.79,9.05-0.37,13.56c0.85,9.16,5.21,17.96,11.97,24.19c2.2,2.02,4.64,3.8,6.55,6.1
				c5.99,7.24,5.82,18.68,13.1,24.61c0.85,0.7,1.85,1.31,2.95,1.35c0.63,0.02,1.25-0.15,1.85-0.34c6.23-2.06,11.07-7.56,12.9-13.86
				s0.82-13.27-2.19-19.1c-3.5-6.79-9.74-12.87-9.43-20.5c0.1-2.31,0.82-4.55,1.24-6.83c2.33-12.45-3.57-24.27-15.46-28.63
				L146.89,413.58z"/>
		</g>
		<g>
			<g>
				<path class="st2" d="M333.06,490.64c-7.43,2.26-17.29,3.44-21.34,11.01c-2.47,4.61-2.3,11.22,3.5,12.85
					c0.31,0.09,0.44-0.39,0.13-0.48c-9.86-2.78-2.73-15.06,2.71-17.97c4.53-2.42,10.24-3.44,15.14-4.93
					C333.5,491.02,333.37,490.54,333.06,490.64L333.06,490.64z"/>
			</g>
		</g>
		<g>
			<path class="st4" d="M255.38,566.48c1.58-4.03,5.39-6.86,9.48-8.28s8.48-1.64,12.81-1.85c6.26-0.3,12.52-0.6,18.78-0.9
				c5.7-0.27,11.5-0.56,16.87-2.49c4.89-1.75,10.35-4.82,14.86-2.23c0.98,0.56,1.85,1.45,2.01,2.56c0.25,1.82-1.41,3.25-2.7,4.55
				c-1.29,1.31-2.3,3.58-0.95,4.82c6.48,0.71,12.84-3.25,16.42-8.7c3.58-5.45,4.77-12.14,4.99-18.65c0.06-1.85,0.04-3.75-0.66-5.47
				c-0.86-2.1-2.63-3.67-4.43-5.05c-10.79-8.29-24.6-12.54-38.19-11.76c-2.84,0.16-5.77,0.58-8.15,2.14
				c-2.98,1.96-4.59,5.38-6.8,8.17c-3.68,4.63-9.05,7.53-14.01,10.74c-8.12,5.26-15.46,11.65-22.76,18.01
				c-2.08,1.81-4.3,3.88-4.65,6.61c0,0-1.27,10.53-0.9,11.28S255.38,566.48,255.38,566.48z"/>
		</g>
		<path class="st5" d="M38.62,569.62l-13.31,69.03c0,0,47.92,38.57,61.46,44.84s117.71,23.69,117.71,23.69s17.72-32.05,26.75-34.84
			c9.03-2.79,24.83-28.57,24.83-28.57L42.38,553.76L38.62,569.62z"/>
		<g>
			<path class="st0" d="M245.81,396.92c7.56,1.54,15.34-0.27,22.92-1.7c7.58-1.43,15.69-2.43,22.79,0.59l-17.5-15.47
				c-5.49-0.44-10.93,1.75-15.39,4.97c-4.46,3.22-8.1,7.44-11.69,11.61"/>
		</g>
		<path class="st6" d="M204.48,707.18c0,0,17.68-19.24,51.58,35.82s35.46,887.29,35.46,887.29l-516.15-36l19.06-923.26l175.76-56.08
			L204.48,707.18z"/>
	</g>
	<path class="st2" d="M323.15,437.71c-0.71,1.18-26.59,11.06-31.29,11.29s-22.35-11.29-22.35-11.29l-4.71-14.59l24.24-3.28
		L323.15,437.71z"/>
</g>
</svg>
