<?xml version="1.0" encoding="utf-8"?>
<!-- Generator: Adobe Illustrator 23.0.3, SVG Export Plug-In . SVG Version: 6.00 Build 0)  -->
<svg version="1.1" id="Lag_1" xmlns="http://www.w3.org/2000/svg" xmlns:xlink="http://www.w3.org/1999/xlink" x="0px" y="0px"
	 viewBox="0 0 400 1400" style="enable-background:new 0 0 400 1400;" xml:space="preserve">
<style type="text/css">
	.st0{fill:#A6946B;}
	.st1{fill:#BFA077;}
	.st2{fill:#D48A7D;}
	.st3{fill:#C32B44;stroke:#FFFFFF;stroke-miterlimit:10;}
	.st4{fill:#6C6840;}
	.st5{fill:#2A1000;}
</style>
<g>
	<path class="st0" d="M448.92,273.62c-12.71,41.9-28.87,94.84-28.87,94.84s-237.68,64.12-249.48,24.44
		c-11.8-39.68-53.86-180.56,0-194.44s155.51-66.45,168.22-56.04"/>
	<path class="st1" d="M219.37,204.81c34,1.79,116.37-58.92,116.37-58.92s68.59,89.28,81.3,94.93l18.4,8.51l17.33-27.36
		c10.49-26.04,1.85-55.49-7.63-81.91c-9.59-26.71-20.27-53.62-38.26-75.57C376.27,27.11,327.74,8.43,279.81,2.41
		C210.73-6.28,138.89,8.75,79.09,44.4l-8.18,5.92c-8.55,0.76-14.65,8.41-19.32,15.62C24.32,108.05,9.08,157.85,8.09,208
		c-0.12,6.12,0.03,12.5,2.84,17.93l5.86,0.81c52.66,9.26,105.83-8.13,156.84-24.13c8.2-2.57,14.24,4.72,18.66,17.73L219.37,204.81z"
		/>
	<g>
		<path class="st2" d="M54.58,232.21c-3.65,6.15-2.63,13.87-1.5,20.93c0.91,5.71,1.54,14.01,2.46,19.71l4.08,4.64
			c0.15,3.72,2.23,4.64,4.63,7.49s5.4,5.12,8.37,7.38c2.26,1.71,4.53,3.44,7.05,4.74c2.32,1.19,4.81,2.01,7.31,2.76
			c3.21,0.96,6.49,1.82,9.84,1.99c8.11,0.41,24.96,6.22,32.68,3.7c8.22-2.68,7.61-13.59,15.89-16.1s16.46-6.17,22.48-12.37
			l1.51-3.52c1.76-4.36,1.12-7.58,1.03-12.28c-0.1-4.93-0.2-9.87-0.29-14.8c-0.07-3.4-0.14-6.83-1.05-10.1
			c-0.35-1.26-0.9-2.58-2.03-3.25c-0.82-0.48,4.52-27.42,3.57-27.47c-17.99-0.97-41.25,6.55-59.27,6.71
			c-16.99,0.15-34.74,19.35-51.7,18.19L54.58,232.21z"/>
	</g>
	<path class="st3" d="M169.04,562.13"/>
	<path class="st4" d="M161.6,461.94c-95.3,74.4-121.96,235.05-119.5,241.4s75.4,235.08,94,290.14s-29.18,406.63-29.18,406.63h551.82
		l-50.83-955.95l-45.49-150.7"/>
	<g>
		<path class="st5" d="M54.89,271.87c4.71,4.94,13.6,14.76,19.53,19.3c8.95,6.84,16.1,9.37,26.36,10.12
			c12.94,0.94,24.44-4.6,35.54-10.13c7.69-3.83,15.67-7.41,24.17-8.59c8.51-1.18,17.72,0.31,24.39,5.73
			c3.66,2.97,6.37,6.97,8.5,11.17c6.6,13.05,7.8,28.07,8.89,42.65c0.96,12.87,1.91,25.92-0.56,38.58
			c-2.98,15.28-10.85,29.28-20.6,41.42c-9.75,12.14-24.02,24.72-35.59,35.14l-4.55,3.62c-5.82,9.15-17.27,13.5-28.11,13.45
			c-10.85-0.04-21.3-3.81-31.39-7.79c-7.17-2.83-14.72-6.14-18.97-12.58c-2.46-3.72-3.57-8.15-4.52-12.51
			c-3.22-14.75-5.1-29.8-5.58-44.9c-0.51-15.66-0.15-33.09-10.72-44.64c-4.17-4.55-9.65-7.67-14.25-11.79s-8.92-12.29-8.13-18.42
			v-0.92c6.04-11.17,15.27-20.3,22-31.07L54.89,271.87z"/>
	</g>
	<path class="st5" d="M420.94,361.76l-0.89,4.18c-32.91,22.69-74.41,27.8-112.19,40.85c-59.28,20.47-113.56,66.34-126.94,127.62
		l-11.88,27.72c0,0-32.62-97.61-28.07-101.23c4.55-3.62,62.3-71.83,62.3-71.83L420.94,361.76z"/>
	<path id="Øje" class="st5" d="M66.86,252.6c0.71,1.18,26.59,11.06,31.3,11.3c4.71,0.24,22.36-11.3,22.36-11.3l4.71-14.59
		l-24.24-3.28L66.86,252.6z"/>
</g>
</svg>
